<svg width="80" height="80" viewBox="0 0 80 80" fill="none" xmlns="http://www.w3.org/2000/svg">
<circle cx="40" cy="40" r="40" fill="black"/>
<path d="M40.0001 13.333C33.5834 13.333 28.3334 19.8663 28.3334 27.9163C28.3334 35.9663 33.5834 42.4997 40.0001 42.4997C46.4167 42.4997 51.6667 35.9663 51.6667 27.9163C51.6667 19.8663 46.4167 13.333 40.0001 13.333ZM27.8084 42.4997C21.6251 42.7913 16.6667 47.8663 16.6667 54.1663V59.9997H63.3334V54.1663C63.3334 47.8663 58.4334 42.7913 52.1917 42.4997C49.0417 46.058 44.7251 48.333 40.0001 48.333C35.2751 48.333 30.9584 46.058 27.8084 42.4997Z" fill="#E8E8E8"/>
</svg>
