<svg width="80" height="80" viewBox="0 0 80 80" fill="none" xmlns="http://www.w3.org/2000/svg">
<circle cx="40" cy="40" r="40" fill="black"/>
<path d="M40.0001 13.3333C33.5834 13.3333 28.3334 19.8666 28.3334 27.9166C28.3334 35.9666 33.5834 42.4999 40.0001 42.4999C46.4167 42.4999 51.6667 35.9666 51.6667 27.9166C51.6667 19.8666 46.4167 13.3333 40.0001 13.3333ZM27.8084 42.4999C21.6251 42.7916 16.6667 47.8666 16.6667 54.1666V59.9999H63.3334V54.1666C63.3334 47.8666 58.4334 42.7916 52.1917 42.4999C49.0417 46.0583 44.7251 48.3333 40.0001 48.3333C35.2751 48.3333 30.9584 46.0583 27.8084 42.4999Z" fill="#E8E8E8"/>
</svg>
